<svg xmlns="http://www.w3.org/2000/svg" width="18" height="18" viewBox="0 0 24 24">
    <g fill="none" fill-rule="evenodd" stroke-linecap="round" stroke-linejoin="round">
        <g stroke="#fff" stroke-width="1.5">
            <g>
                <path d="M15.04 22.39l.012.007c2.188 1.393 5.05 1.08 6.884-.755l.774-.774c.72-.72.72-1.888 0-2.609L19.449 15c-.72-.72-1.888-.72-2.609 0h0c-.346.346-.815.54-1.304.54-.49 0-.958-.194-1.304-.54L9.014 9.781c-.72-.72-.72-1.888 0-2.609h0c.346-.346.54-.815.54-1.304 0-.49-.194-.958-.54-1.304L5.754 1.3c-.72-.72-1.888-.72-2.609 0l-.774.774C.537 3.908.223 6.77 1.615 8.958l.008.012c3.573 5.29 8.128 9.845 13.417 13.42h0z"/>
            </g>
        </g>
    </g>
</svg>
