<svg xmlns="http://www.w3.org/2000/svg" width="18" height="18" viewBox="0 0 24 24">
    <g fill="none" fill-rule="evenodd" stroke-linecap="round" stroke-linejoin="round">
        <g stroke="#fff">
            <path stroke-width="1.5" d="M21.75 18.75h-10.5l-6 4.5v-4.5h-3c-.828 0-1.5-.672-1.5-1.5v-15c0-.828.672-1.5 1.5-1.5h19.5c.828 0 1.5.672 1.5 1.5v15c0 .828-.672 1.5-1.5 1.5z"/>
            <path stroke-width="1.5" d="M9 6.75c0-1.526 1.145-2.808 2.661-2.98 1.516-.172 2.92.82 3.262 2.307.343 1.486-.485 2.993-1.923 3.502-.6.212-1 .779-1 1.415v.256"/>
            <path stroke-width="2" d="M12 14.25c-.207 0-.375.168-.375.375S11.793 15 12 15s.375-.168.375-.375-.168-.375-.375-.375h0"/>
        </g>
    </g>
</svg>
